<?xml version="1.0" encoding="utf-8"?>
<!-- Generator: Adobe Illustrator 25.0.0, SVG Export Plug-In . SVG Version: 6.00 Build 0)  -->
<svg version="1.1" id="Layer_1" xmlns="http://www.w3.org/2000/svg" xmlns:xlink="http://www.w3.org/1999/xlink" x="0px" y="0px"
	 viewBox="0 0 224.1 58" style="enable-background:new 0 0 224.1 58;" xml:space="preserve">
<style type="text/css">
	.st0{fill:#D62EFF;}
	.st1{fill:#FFFFFF;}
</style>
<g>
	<g>
		<path class="st0" d="M18.6,26.1l22-17.9C41,7.8,41.3,7.4,41.5,7c-3-2.7-6.9-4.4-11.2-4.4H3.6C1.6,2.6,0,4.2,0,6.2v9.7l12.6,10.2
			C14.2,27.4,16.9,27.4,18.6,26.1z"/>
		<path class="st0" d="M43.9,9.9c-0.3,0.4-0.7,0.8-1.1,1.1l-22,17.9c-1.5,1.2-3.4,1.8-5.3,1.8s-3.8-0.6-5.3-1.8L0,20.5V58
			c0-6.7,5.4-11.8,16.6-11.8h13.7c9.1,0,16.6-7.5,16.6-16.6V19.2C46.8,15.7,45.7,12.5,43.9,9.9z"/>
	</g>
	<g>
		<path class="st1" d="M81.3,4.2c-2.8-1.1-6.1-1.6-9.8-1.6H58.9v43.6h4.2V32.8h8.6c3.6,0,6.7-0.5,9.5-1.6c2.8-1.1,5-2.7,6.6-5
			c1.6-2.2,2.4-5.1,2.4-8.6c0-3.4-0.8-6.2-2.4-8.4C86.3,7,84.1,5.3,81.3,4.2z M84,24.1c-1.3,1.7-3,2.9-5.2,3.6
			c-2.2,0.8-4.6,1.1-7.3,1.1h-8.5V6.5h8.5c2.8,0,5.3,0.4,7.5,1.2c2.2,0.8,3.8,2,5.1,3.6c1.2,1.6,1.8,3.7,1.8,6.3
			C86,20.3,85.3,22.5,84,24.1z"/>
		<path class="st1" d="M143.8,3.3c-1-0.8-2.2-1.2-3.6-1.2c-1.2,0-2.3,0.3-3.4,1c-1,0.7-1.7,1.7-2.1,3.1l-9.3,33.1
			c-0.1,0.5-0.3,0.8-0.4,1c-0.1,0.2-0.4,0.3-0.7,0.3c-0.4,0-0.8-0.5-1-1.4L113.9,6c-0.4-1.4-1.1-2.4-2.1-3.1s-2.1-1-3.3-1
			c-1.3,0-2.5,0.4-3.6,1.2s-1.7,2-2,3.6l-6.3,39.6h4.2L106.8,8c0.1-0.8,0.4-1.4,0.7-1.8c0.3-0.4,0.7-0.6,1.2-0.6s0.9,0.2,1.1,0.5
			c0.3,0.3,0.5,0.8,0.7,1.5l9.7,33.5c0.3,1,0.8,1.7,1.6,2.2c0.8,0.5,1.6,0.8,2.5,0.8c1,0,1.8-0.3,2.5-0.8c0.7-0.5,1.3-1.3,1.6-2.3
			l9.7-33.3c0.2-0.7,0.4-1.2,0.8-1.5c0.3-0.4,0.7-0.6,1.1-0.6c0.6,0,1,0.2,1.3,0.6s0.4,1,0.5,1.7l5.4,38.2h4.2l-5.7-39.3
			C145.5,5.3,144.8,4.1,143.8,3.3z"/>
		<path class="st1" d="M183.4,16c-2.5-1.5-5.3-2.2-8.5-2.2s-6,0.7-8.5,2.2c-2.5,1.5-4.5,3.5-6,6c-1.5,2.5-2.2,5.3-2.2,8.3
			c0,3.1,0.7,5.8,2.1,8.3c1.4,2.5,3.3,4.5,5.7,6c2.4,1.5,5.1,2.3,8.2,2.3c2.9,0,5.5-0.7,7.7-2.1c2.2-1.4,4-3.2,5.3-5.5
			c0.1-0.2,0.2-0.4,0.3-0.5v7.5h3.9V30.3c0-3.1-0.7-5.9-2.2-8.4C187.9,19.5,185.9,17.5,183.4,16z M185.9,36.7
			c-1.1,1.9-2.6,3.5-4.5,4.6c-1.9,1.2-4,1.7-6.4,1.7s-4.5-0.6-6.4-1.7c-1.9-1.1-3.4-2.7-4.5-4.6c-1.1-1.9-1.7-4-1.7-6.3
			s0.6-4.4,1.7-6.3c1.1-1.9,2.6-3.5,4.5-4.6c1.9-1.1,4-1.7,6.4-1.7c2.4,0,4.5,0.6,6.4,1.7c1.9,1.2,3.4,2.7,4.5,4.6
			c1.1,1.9,1.7,4,1.7,6.3C187.6,32.7,187,34.8,185.9,36.7z"/>
		<path class="st1" d="M206.9,1.3c-0.4-0.3-0.9-0.4-1.5-0.4c-0.5,0-1,0.1-1.5,0.4c-0.5,0.3-0.8,0.6-1.1,1.1c-0.3,0.5-0.4,1-0.4,1.5
			s0.1,1.1,0.4,1.5c0.3,0.5,0.6,0.8,1.1,1.1c0.5,0.3,0.9,0.4,1.5,0.4c0.6,0,1.1-0.1,1.5-0.4c0.4-0.3,0.8-0.6,1-1.1
			c0.3-0.5,0.4-1,0.4-1.5s-0.1-1.1-0.4-1.5C207.6,1.9,207.3,1.6,206.9,1.3z"/>
		<rect x="203.4" y="14.6" class="st1" width="4" height="31.7"/>
		<rect x="220" class="st1" width="4" height="46.3"/>
	</g>
</g>
</svg>
